<?xml version="1.0" encoding="utf-8"?>
<!-- Generator: Adobe Illustrator 21.0.2, SVG Export Plug-In . SVG Version: 6.00 Build 0)  -->
<svg version="1.1" id="Layer_1" xmlns="http://www.w3.org/2000/svg" xmlns:xlink="http://www.w3.org/1999/xlink" x="0px" y="0px"
	 viewBox="0 0 29.1 29.2" style="enable-background:new 0 0 29.1 29.2;" xml:space="preserve">
<style type="text/css">
	.st0{fill:#4D7FA3;}
</style>
<g>
	<path class="st0" d="M11.6,21.2c0.8,0.5,1.6,1,2.3,1.5c0.4,0.3,0.8,0.3,1.2,0c0.8-0.5,1.5-1,2.3-1.5c3.2,2.6,6.4,5.3,9.7,8.1
		c-8.4,0-16.7,0-25.2,0C5.3,26.5,8.5,23.8,11.6,21.2z"/>
	<path class="st0" d="M24.1,14.5c0-0.4,0-0.6,0-0.8c0-2.8,0-5.5,0-8.3c0-0.3,0.1-0.7-0.3-0.9c-6.1,0-12.3,0-18.5,0
		C5,4.7,5,5.1,5,5.4c0,2.8,0,5.7,0,8.5c0,0.2,0,0.4,0,0.8c-1.7-1-3.3-2.1-4.9-3.1c1.1-0.8,2.1-1.6,3.1-2.4c0-0.7,0-1.4,0-2.1
		c0-1,0-2,0-3c0-1.1,0.4-1.5,1.5-1.5c1.9,0,3.8,0,5.7,0c0.3,0,0.5,0,0.8,0c1-0.8,2-1.6,2.9-2.4c0.5-0.2,0.8,0,1.1,0.3
		c0.8,0.7,1.7,1.4,2.6,2.1c1.9,0,3.8,0,5.7,0c0.4,0,0.8,0,1.2,0c0.7,0,1.1,0.4,1.2,1.1c0,0.2,0,0.3,0,0.5c0,1.5,0,3,0,4.4
		c0,0.2,0,0.4,0,0.6c1,0.7,2,1.4,3.1,2.2C27.4,12.5,25.8,13.4,24.1,14.5z"/>
	<path class="st0" d="M29.1,13.1c0,5.3,0,10.3,0,15.6c-3.5-2.8-6.8-5.6-10.2-8.4C22.3,17.9,25.7,15.6,29.1,13.1z"/>
	<path class="st0" d="M0,28.7c0-5.2,0-10.3,0-15.6c1.8,1.2,3.5,2.4,5.1,3.6c1.7,1.2,3.4,2.4,5.1,3.6C6.8,23.1,3.5,25.9,0,28.7z"/>
	<path class="st0" d="M14.5,11.4c-2.1,0-4.3,0-6.4,0c-0.2,0-0.3,0-0.5,0c-0.1,0-0.3-0.1-0.4-0.1c-0.4-0.3-0.3-0.8-0.2-1.1
		c0-0.3,0.3-0.5,0.7-0.5c0.1,0,0.3,0,0.5,0c4.3,0,8.7,0,13,0c0.1,0,0.1,0,0.2,0c0.8,0,1.3,0.8,0.8,1.5c-0.2,0.3-0.5,0.3-0.8,0.3
		c-1.5,0-2.9,0-4.4,0C16.1,11.4,15.3,11.4,14.5,11.4z"/>
	<path class="st0" d="M14.6,8.2c-2.2,0-4.4,0-6.7,0c-0.3,0-0.5,0-0.7-0.1C6.8,7.7,6.9,7.3,6.9,6.9c0-0.3,0.3-0.5,0.6-0.5
		c0.2,0,0.3,0,0.5,0c4.3,0,8.7,0,13,0c0.1,0,0.2,0,0.3,0c0.3,0,0.7,0.1,0.8,0.4c0.1,0.4,0.2,0.8-0.1,1.1c-0.2,0.3-0.5,0.3-0.8,0.3
		c-1.5,0-3,0-4.6,0C16,8.2,15.3,8.2,14.6,8.2z"/>
	<path class="st0" d="M17.7,13.2c0,0,0,0.1,0,0.1c0.1,1,0,1.3-1.2,1.3c-2.8,0-5.7,0-8.5,0c-0.1,0-0.1,0-0.2,0C7,14.7,6.6,14,7,13.3
		c0.1-0.2,0.3-0.3,0.5-0.4c0.1,0,0.2,0,0.3,0c3,0,6,0,9,0C17.2,12.8,17.5,12.9,17.7,13.2z"/>
</g>
<g>
</g>
<g>
</g>
<g>
</g>
<g>
</g>
<g>
</g>
<g>
</g>
</svg>
