<?xml version="1.0" encoding="utf-8"?>
<!-- Generator: Adobe Illustrator 21.0.2, SVG Export Plug-In . SVG Version: 6.00 Build 0)  -->
<svg version="1.1" id="Layer_1" xmlns="http://www.w3.org/2000/svg" xmlns:xlink="http://www.w3.org/1999/xlink" x="0px" y="0px"
	 viewBox="0 0 14.9 32.1" style="enable-background:new 0 0 14.9 32.1;" xml:space="preserve">
<style type="text/css">
	.st0{display:none;fill:#436F8E;}
	.st1{fill:#436F8E;}
	.st2{display:none;}
	.st3{display:inline;fill:#436F8E;}
</style>
<circle class="st0" cx="17.5" cy="14.6" r="17.5"/>
<g>
	<path class="st1" d="M9.9,32.1c-2.2,0-4.3,0-6.5,0c0-5.3,0-10.7,0-16.1c-1.2,0-2.3,0-3.4,0c0-1.9,0-3.7,0-5.5c1.1,0,2.2,0,3.3,0
		c0-0.2,0-0.3,0-0.4c0-1.5,0-2.9,0.1-4.4c0-1.2,0.3-2.4,1-3.4c0.8-1.2,2-1.8,3.4-2.1C8.6,0.1,9.4,0,10.1,0c1.5,0,3,0,4.4,0
		c0.1,0,0.1,0,0.3,0c0,1.9,0,3.8,0,5.7c-0.3,0-0.6,0-1,0c-1,0-2,0-3,0.1C10.3,5.8,10,6,10,6.5c-0.1,1.3-0.1,2.6-0.1,4
		c1.7,0,3.3,0,5,0c-0.1,0.7-0.1,1.3-0.2,1.9c-0.1,1-0.2,2.1-0.3,3.1c0,0.3-0.1,0.4-0.4,0.4c-1.2,0-2.5,0-3.7,0c-0.1,0-0.2,0-0.4,0
		C9.9,21.3,9.9,26.7,9.9,32.1z"/>
</g>
<g class="st2">
	<path class="st3" d="M11.7,25.2C8,24.8,5.5,23,4.2,19.6c1.2,0,2.3,0.1,3.4-0.2c-2.3-0.7-4-2-5.2-4c-0.7-1.2-1.1-2.5-1-4
		c1.1,0.6,2.2,0.9,3.5,1c-3.6-3-4.3-6.6-2.4-10.8C3.2,2.3,4,3,4.7,3.7c3.5,3.4,7.7,5.3,12.5,6c0.6,0.1,1.3,0.1,2,0.2
		c0-0.2,0-0.3,0-0.5c-0.2-2.2,0.1-4.3,1.5-6.2C22.5,0.9,24.9-0.2,28,0c1.8,0.1,3.3,0.8,4.6,2c0.4,0.4,0.8,0.5,1.3,0.3
		c1.2-0.4,2.3-0.9,3.5-1.3c0.3-0.1,0.6-0.2,0.9-0.4C37.6,2.5,36.5,3.8,35,5c0.8,0,1.5-0.2,2.2-0.4c0.7-0.2,1.3-0.4,2.1-0.6
		c-0.2,0.2-0.3,0.5-0.5,0.7c-0.9,1.1-1.9,2.2-3,3c-0.2,0.2-0.3,0.4-0.3,0.6c-0.1,1.6-0.1,3.1-0.4,4.6c-1.3,7-4.9,12.4-11,16.1
		c-3.3,2-6.9,3-10.7,3c-1.8,0-3.5,0-5.3-0.3c-2.8-0.5-5.3-1.6-7.7-3c-0.1,0-0.1-0.1-0.2-0.2c2.1,0,4.1,0,6.1-0.6
		C8.1,27.4,9.9,26.5,11.7,25.2z"/>
</g>
<g class="st2">
	<path class="st3" d="M19.5,13.5c0.5-0.6,0.9-1.2,1.5-1.6c1.2-1,2.7-1.5,4.2-1.7c1.6-0.2,3.1,0,4.6,0.5c2.4,0.9,3.8,2.7,4.6,5.1
		c0.4,1.2,0.6,2.5,0.6,3.8c0,4,0,7.9,0,11.9c0,0.4-0.1,0.5-0.5,0.5c-2.2,0-4.4,0-6.6,0c-0.4,0-0.5-0.1-0.5-0.5c0-3.7,0-7.3,0-11
		c0-0.7-0.2-1.5-0.4-2.1c-0.4-1.4-1.3-2.3-2.7-2.5c-1.6-0.3-2.9,0.2-3.9,1.5c-0.6,0.7-0.8,1.5-0.8,2.5c0,3.9,0,7.8,0,11.7
		c0,0.4-0.1,0.5-0.5,0.5c-2.2,0-4.4,0-6.6,0c-0.4,0-0.5-0.1-0.5-0.5c0-5.7,0.1-11.3,0.1-17c0-1.3,0-2.7-0.1-4c0-0.3,0.2-0.3,0.3-0.3
		c0.7,0,1.3,0,2,0c1.6,0,3.1,0,4.7,0c0.6,0,0.6,0,0.6,0.5c0,0.8,0,1.5,0,2.3C19.5,13.3,19.5,13.4,19.5,13.5z"/>
	<path class="st3" d="M0.9,21.2c0-3.5,0-6.9,0-10.4c0-0.4,0.1-0.5,0.5-0.5c1.9,0,3.8,0,5.8,0c0.4,0,0.5,0.1,0.5,0.5
		c0,6.9,0,13.9,0,20.8c0,0.4-0.1,0.5-0.5,0.5c-1.9,0-3.9,0-5.8,0c-0.4,0-0.5-0.1-0.5-0.5C0.9,28.1,0.9,24.7,0.9,21.2z"/>
	<path class="st3" d="M4.3,7.5C2.5,7.5,1.2,6.9,0.4,5.4c-1.1-2.3,0.3-5,2.8-5.3C4.5-0.1,5.8,0,6.8,0.8c1.2,0.9,1.7,2.3,1.4,3.7
		C7.9,6,6.9,6.9,5.5,7.3C5,7.5,4.6,7.5,4.3,7.5z"/>
</g>
<g>
</g>
<g>
</g>
<g>
</g>
<g>
</g>
<g>
</g>
<g>
</g>
</svg>
