<?xml version="1.0" encoding="utf-8"?>
<!-- Generator: Adobe Illustrator 21.0.2, SVG Export Plug-In . SVG Version: 6.00 Build 0)  -->
<svg version="1.1" id="Layer_1" xmlns="http://www.w3.org/2000/svg" xmlns:xlink="http://www.w3.org/1999/xlink" x="0px" y="0px"
	 viewBox="0 0 35 35" style="enable-background:new 0 0 35 35;" xml:space="preserve">
<style type="text/css">
	.st0{fill:#436F8E;}
	.st1{fill:#FFFFFF;}
</style>
<circle class="st0" cx="17.5" cy="17.5" r="17.5"/>
<g>
	<path class="st1" d="M19.4,29.2c-1.6,0-3.1,0-4.7,0c0-3.9,0-7.7,0-11.6c-0.8,0-1.6,0-2.4,0c0-1.3,0-2.7,0-4c0.8,0,1.6,0,2.4,0
		c0-0.1,0-0.2,0-0.3c0-1.1,0-2.1,0-3.2c0-0.9,0.2-1.7,0.8-2.5c0.6-0.8,1.5-1.3,2.5-1.5C18.4,6,19,6,19.5,5.9c1.1,0,2.1,0,3.2,0
		c0.1,0,0.1,0,0.2,0c0,1.4,0,2.7,0,4.1c-0.2,0-0.5,0-0.7,0c-0.7,0-1.5,0-2.2,0c-0.4,0-0.6,0.2-0.6,0.6c0,0.9-0.1,1.9-0.1,2.9
		c1.2,0,2.4,0,3.6,0c0,0.5-0.1,0.9-0.1,1.4c-0.1,0.7-0.1,1.5-0.2,2.2c0,0.2-0.1,0.3-0.3,0.3c-0.9,0-1.8,0-2.7,0c-0.1,0-0.2,0-0.3,0
		C19.4,21.4,19.4,25.3,19.4,29.2z"/>
</g>
<g>
</g>
<g>
</g>
<g>
</g>
<g>
</g>
<g>
</g>
<g>
</g>
</svg>
