<?xml version="1.0" encoding="utf-8"?>
<!-- Generator: Adobe Illustrator 21.0.2, SVG Export Plug-In . SVG Version: 6.00 Build 0)  -->
<svg version="1.1" id="Layer_1" xmlns="http://www.w3.org/2000/svg" xmlns:xlink="http://www.w3.org/1999/xlink" x="0px" y="0px"
	 viewBox="0 0 35 32.1" style="enable-background:new 0 0 35 32.1;" xml:space="preserve">
<style type="text/css">
	.st0{display:none;fill:#436F8E;}
	.st1{display:none;}
	.st2{display:inline;fill:#436F8E;}
	.st3{fill:#436F8E;}
</style>
<circle class="st0" cx="17.5" cy="14.6" r="17.5"/>
<g class="st1">
	<path class="st2" d="M19.4,26.3c-1.6,0-3.1,0-4.7,0c0-3.9,0-7.7,0-11.6c-0.8,0-1.6,0-2.4,0c0-1.3,0-2.7,0-4c0.8,0,1.6,0,2.4,0
		c0-0.1,0-0.2,0-0.3c0-1.1,0-2.1,0-3.2c0-0.9,0.2-1.7,0.8-2.5c0.6-0.8,1.5-1.3,2.5-1.5C18.4,3.1,19,3,19.5,3c1.1,0,2.1,0,3.2,0
		c0.1,0,0.1,0,0.2,0c0,1.4,0,2.7,0,4.1c-0.2,0-0.5,0-0.7,0c-0.7,0-1.5,0-2.2,0c-0.4,0-0.6,0.2-0.6,0.6c0,0.9-0.1,1.9-0.1,2.9
		c1.2,0,2.4,0,3.6,0c0,0.5-0.1,0.9-0.1,1.4c-0.1,0.7-0.1,1.5-0.2,2.2c0,0.2-0.1,0.3-0.3,0.3c-0.9,0-1.8,0-2.7,0c-0.1,0-0.2,0-0.3,0
		C19.4,18.5,19.4,22.4,19.4,26.3z"/>
</g>
<g class="st1">
	<path class="st2" d="M12.9,19.9c-2.1-0.2-3.6-1.3-4.3-3.3c0.7,0,1.3,0.1,2-0.1c-1.3-0.4-2.3-1.1-3-2.3c-0.4-0.7-0.6-1.5-0.6-2.3
		c0.6,0.3,1.3,0.5,2,0.6c-2.1-1.7-2.5-3.8-1.4-6.3C8,6.6,8.4,7,8.9,7.4c2,1.9,4.5,3.1,7.2,3.5c0.4,0.1,0.7,0.1,1.1,0.1
		c0-0.1,0-0.2,0-0.3c-0.1-1.3,0-2.5,0.8-3.6c1.1-1.4,2.5-2.1,4.3-1.9c1,0.1,1.9,0.5,2.7,1.2c0.2,0.2,0.5,0.3,0.7,0.2
		c0.7-0.2,1.3-0.5,2-0.8c0.2-0.1,0.3-0.1,0.5-0.2c-0.4,1-1,1.8-1.9,2.5c0.5,0,0.9-0.1,1.3-0.2c0.4-0.1,0.8-0.2,1.2-0.3
		c-0.1,0.1-0.2,0.3-0.3,0.4c-0.5,0.6-1.1,1.2-1.7,1.7c-0.1,0.1-0.2,0.2-0.2,0.4c-0.1,0.9-0.1,1.8-0.2,2.7c-0.8,4-2.8,7.2-6.4,9.3
		c-1.9,1.1-4,1.7-6.2,1.7c-1,0-2,0-3-0.2c-1.6-0.3-3.1-0.9-4.5-1.7c0,0-0.1-0.1-0.1-0.1c1.2,0,2.4,0,3.5-0.4
		C10.8,21.1,11.9,20.6,12.9,19.9z"/>
</g>
<g>
	<path class="st3" d="M19.5,13.5c0.5-0.6,0.9-1.2,1.5-1.6c1.2-1,2.7-1.5,4.2-1.7c1.6-0.2,3.1,0,4.6,0.5c2.4,0.9,3.8,2.7,4.6,5.1
		c0.4,1.2,0.6,2.5,0.6,3.8c0,4,0,7.9,0,11.9c0,0.4-0.1,0.5-0.5,0.5c-2.2,0-4.4,0-6.6,0c-0.4,0-0.5-0.1-0.5-0.5c0-3.7,0-7.3,0-11
		c0-0.7-0.2-1.5-0.4-2.1c-0.4-1.4-1.3-2.3-2.7-2.5c-1.6-0.3-2.9,0.2-3.9,1.5c-0.6,0.7-0.8,1.5-0.8,2.5c0,3.9,0,7.8,0,11.7
		c0,0.4-0.1,0.5-0.5,0.5c-2.2,0-4.4,0-6.6,0c-0.4,0-0.5-0.1-0.5-0.5c0-5.7,0.1-11.3,0.1-17c0-1.3,0-2.7-0.1-4c0-0.3,0.2-0.3,0.3-0.3
		c0.7,0,1.3,0,2,0c1.6,0,3.1,0,4.7,0c0.6,0,0.6,0,0.6,0.5c0,0.8,0,1.5,0,2.3C19.5,13.3,19.5,13.4,19.5,13.5z"/>
	<path class="st3" d="M0.9,21.2c0-3.5,0-6.9,0-10.4c0-0.4,0.1-0.5,0.5-0.5c1.9,0,3.8,0,5.8,0c0.4,0,0.5,0.1,0.5,0.5
		c0,6.9,0,13.9,0,20.8c0,0.4-0.1,0.5-0.5,0.5c-1.9,0-3.9,0-5.8,0c-0.4,0-0.5-0.1-0.5-0.5C0.9,28.1,0.9,24.7,0.9,21.2z"/>
	<path class="st3" d="M4.3,7.5C2.5,7.5,1.2,6.9,0.4,5.4c-1.1-2.3,0.3-5,2.8-5.3C4.5-0.1,5.8,0,6.8,0.8c1.2,0.9,1.7,2.3,1.4,3.7
		C7.9,6,6.9,6.9,5.5,7.3C5,7.5,4.6,7.5,4.3,7.5z"/>
</g>
<g>
</g>
<g>
</g>
<g>
</g>
<g>
</g>
<g>
</g>
<g>
</g>
</svg>
