<?xml version="1.0" encoding="utf-8"?>
<!-- Generator: Adobe Illustrator 21.0.2, SVG Export Plug-In . SVG Version: 6.00 Build 0)  -->
<svg version="1.1" id="Layer_1" xmlns="http://www.w3.org/2000/svg" xmlns:xlink="http://www.w3.org/1999/xlink" x="0px" y="0px"
	 viewBox="0 0 24.9 29.2" style="enable-background:new 0 0 24.9 29.2;" xml:space="preserve">
<style type="text/css">
	.st0{fill:#4D7FA3;}
</style>
<g>
	<path class="st0" d="M12.4,24.8c-0.8-1.5-1.6-3-2.4-4.6C8.3,17,6.7,13.6,5.5,10.1C4.7,7.5,4.9,5,6.6,2.8c1.9-2.5,5.3-3.4,8.3-2.4
		c3,1,5.1,3.9,5,7c0,1.4-0.5,2.8-1,4.1c-1.7,4.5-4,8.9-6.3,13.1C12.6,24.7,12.5,24.7,12.4,24.8z M12.5,10c1.3,0,2.5-1.1,2.5-2.5
		c0-1.4-1.2-2.6-2.6-2.5C11.1,5,10,6.1,9.9,7.4C9.9,8.8,11.1,10,12.5,10z"/>
	<path class="st0" d="M6.5,19.4c-0.3,0.1-0.5,0.2-0.7,0.3c-0.7,0.3-1.4,0.6-2,1C1.9,21.9,2,23.5,4,24.7c1.5,1,3.5,1.5,5.8,1.7
		c3.1,0.3,6,0.1,8.7-0.7c1.2-0.4,2.2-0.8,2.9-1.5c1.3-1.1,1.3-2.2,0-3.3c-0.6-0.5-1.4-0.9-2.4-1.3c-0.2-0.1-0.5-0.2-0.7-0.3
		c0.1,0,0.2,0,0.2,0c2.3,0.6,4.2,1.4,5.4,2.6c1.6,1.6,1,3.5-1.3,4.9C20.9,28,18.7,28.7,16,29c-4.1,0.5-8,0.2-11.6-1
		c-1.6-0.6-2.9-1.3-3.7-2.2c-1.2-1.5-0.9-2.9,0.8-4.3c1.2-0.9,2.8-1.6,4.8-2C6.3,19.4,6.4,19.4,6.5,19.4z"/>
</g>
<g>
</g>
<g>
</g>
<g>
</g>
<g>
</g>
<g>
</g>
<g>
</g>
</svg>
