<?xml version="1.0" encoding="utf-8"?>
<!-- Generator: Adobe Illustrator 21.0.2, SVG Export Plug-In . SVG Version: 6.00 Build 0)  -->
<svg version="1.1" id="Layer_1" xmlns="http://www.w3.org/2000/svg" xmlns:xlink="http://www.w3.org/1999/xlink" x="0px" y="0px"
	 viewBox="0 0 1764.7 336" style="enable-background:new 0 0 1764.7 336;" xml:space="preserve">
<style type="text/css">
	.st0{fill:#436F8E;}
	.st1{fill:#384D54;}
	.st2{clip-path:url(#SVGID_2_);fill:#FFB600;}
</style>
<g>
	<g>
		<g>
			<path class="st0" d="M387.6,262.9V58.3H475c9.8,0,18.8,2,27,6.1c8.2,4,15.2,9.3,21,15.9c5.9,6.5,10.5,13.9,13.8,22.2
				c3.4,8.3,5,16.6,5,25.1c0,9-1.6,17.7-4.8,25.9c-3.2,8.3-7.6,15.7-13.3,22.2c-5.7,6.5-12.5,11.7-20.6,15.6
				c-8.1,3.8-17,5.8-26.8,5.8h-41.5v66H387.6z M434.9,155.7h38.6c5.6,0,10.4-2.4,14.4-7.2c4-4.8,6.1-11.8,6.1-21
				c0-4.8-0.6-8.9-1.9-12.4c-1.3-3.5-2.9-6.3-5-8.6c-2.1-2.3-4.5-4-7.2-5c-2.7-1.1-5.4-1.6-8.1-1.6h-36.9V155.7z"/>
			<path class="st0" d="M600.6,265.8c-15.6,0-27.3-4.9-35.3-14.6c-8-9.7-12-24-12-42.8v-96.8h46.1v86.8c0,9.2,1.8,16.3,5.5,21.2
				c3.6,4.9,8.8,7.3,15.6,7.3c6.1,0,12.1-1.6,17.9-4.9c5.8-3.3,10.9-8.9,15.3-17v-93.4h46.1V211c0,4.6,0.7,7.8,2.2,9.7
				c1.4,1.8,4,2.9,7.6,3.3v38.9c-4.4,1-8.2,1.6-11.2,1.9c-3.1,0.3-5.9,0.4-8.4,0.4c-16.5,0-25.9-6.4-28.2-19.3l-0.9-9.2
				c-6.9,10-15.5,17.3-25.8,22.1C624.8,263.4,613.3,265.8,600.6,265.8z"/>
			<path class="st0" d="M785.7,263.5c-10,0-19.1-2-27.4-6.1c-8.3-4-15.3-9.5-21.2-16.4c-5.9-6.9-10.4-15-13.7-24.2
				c-3.3-9.2-4.9-19.1-4.9-29.7c0-11.1,1.7-21.5,5.2-31c3.5-9.5,8.3-17.8,14.4-24.8c6.1-7,13.5-12.5,22.2-16.6s18.2-6.1,28.5-6.1
				c11.5,0,21.6,2.5,30.1,7.3c8.5,4.9,15.4,11.7,20.6,20.3v-24.8h40.1v141c0,11.5-2.2,21.9-6.5,31.1c-4.3,9.2-10.3,17.1-18,23.5
				c-7.7,6.4-16.9,11.4-27.7,14.8c-10.8,3.5-22.6,5.2-35.5,5.2c-16.3,0-30.3-2.6-41.8-7.8c-11.5-5.2-21.6-12.7-30.3-22.5l24.8-25.1
				c5.6,6.3,12.5,11.4,20.8,15.1c8.3,3.7,17.1,5.6,26.5,5.6c5.6,0,10.9-0.8,15.9-2.3c5-1.5,9.4-3.9,13.3-7.1
				c3.8-3.2,6.9-7.3,9.1-12.4c2.2-5.1,3.3-11.2,3.3-18.3v-14.7c-4.6,8.5-11.2,14.8-19.9,19.2C805,261.3,795.7,263.5,785.7,263.5z
				 M801.5,226.9c7.1,0,13.4-2,19-5.9c5.6-3.9,9.9-9,13-15.1v-31.7c-3.1-8.1-7.8-14.5-14.1-19.2c-6.3-4.7-13.1-7.1-20.2-7.1
				c-5,0-9.6,1.1-13.7,3.3c-4.1,2.2-7.7,5.2-10.7,8.9c-3,3.7-5.3,8.1-6.9,13c-1.6,4.9-2.5,9.9-2.5,15.1c0,5.6,0.9,10.7,2.7,15.4
				c1.8,4.7,4.4,8.8,7.6,12.3c3.3,3.5,7.1,6.2,11.4,8.1C791.6,225.9,796.4,226.9,801.5,226.9z"/>
			<path class="st0" d="M975.1,265.8c-12.7,0-24.1-2.1-34.2-6.2c-10.1-4.1-18.6-9.8-25.7-16.9c-7-7.1-12.3-15.3-16-24.6
				c-3.7-9.3-5.5-19.1-5.5-29.3c0-11,1.8-21.3,5.5-31c3.6-9.7,8.9-18.2,15.9-25.5c6.9-7.3,15.4-13.1,25.5-17.3
				c10.1-4.2,21.6-6.3,34.4-6.3c12.9,0,24.3,2.1,34.3,6.3c10,4.2,18.4,9.9,25.4,17.2s12.2,15.5,15.7,24.9c3.6,9.4,5.3,19.3,5.3,29.7
				c0,2.7-0.1,5.3-0.3,7.9c-0.2,2.6-0.5,4.9-0.9,6.8H942.8c0.8,10.2,4.5,17.9,11.1,23.2c6.6,5.3,14.2,7.9,22.6,7.9
				c6.7,0,13.2-1.6,19.5-4.9c6.2-3.3,10.4-7.7,12.5-13.3l39.2,11c-6,11.9-15.2,21.6-27.7,29.1C1007.5,262.1,992.6,265.8,975.1,265.8
				z M1007.1,173c-1-9.6-4.4-17.2-10.4-22.8c-6-5.6-13.4-8.4-22.2-8.4c-9,0-16.5,2.8-22.3,8.5c-5.9,5.7-9.3,13.2-10.2,22.6H1007.1z"
				/>
			<path class="st0" d="M1165,254.9c-6.3,2.7-13.6,5.2-21.8,7.5c-8.2,2.3-16.4,3.5-24.6,3.5c-5.8,0-11.2-0.7-16.3-2.2
				c-5.1-1.4-9.6-3.7-13.4-6.9c-3.8-3.2-6.9-7.3-9.1-12.5c-2.2-5.2-3.3-11.4-3.3-18.7v-79h-19.3v-34.9h19.3V63.5h46.1v48.1h30.8
				v34.9h-30.8v63.1c0,5,1.2,8.6,3.7,10.8c2.5,2.2,5.7,3.3,9.5,3.3c3.5,0,7-0.6,10.7-1.7c3.6-1.2,6.8-2.4,9.5-3.7L1165,254.9z"/>
		</g>
		<g>
			<path class="st1" d="M1346.8,71.5h-74.9v191.4h-14.7V71.5h-74.9V58.3h164.6V71.5z"/>
			<path class="st1" d="M1396.3,265.8c-10.6,0-20.4-2.1-29.4-6.2c-9-4.1-16.9-9.8-23.5-17s-11.8-15.5-15.6-24.9
				c-3.7-9.4-5.6-19.5-5.6-30.3c0-10.6,1.9-20.5,5.6-29.8c3.7-9.3,8.9-17.5,15.4-24.5c6.5-7,14.3-12.5,23.2-16.6s18.6-6.1,29-6.1
				c10.6,0,20.4,2.1,29.4,6.2c9,4.1,16.8,9.7,23.3,16.7c6.5,7,11.6,15.2,15.3,24.5c3.6,9.3,5.5,19.2,5.5,29.5c0,1,0,2.2,0,3.6
				s-0.1,2.4-0.3,2.7h-131.4c0.6,8.6,2.6,16.7,6.1,24.1c3.5,7.4,7.8,13.8,13.1,19.2c5.3,5.4,11.4,9.6,18.3,12.7
				c6.9,3.1,14.3,4.6,22.2,4.6c5.2,0,10.3-0.7,15.3-2.2c5-1.4,9.7-3.4,14-5.9c4.3-2.5,8.2-5.5,11.5-9.1c3.4-3.6,6-7.4,7.9-11.7
				l12.7,3.5c-2.1,5.4-5.2,10.3-9.4,14.8c-4.1,4.5-8.9,8.4-14.4,11.7c-5.5,3.3-11.5,5.8-18,7.6
				C1410,264.9,1403.3,265.8,1396.3,265.8z M1455.1,182.2c-0.6-8.8-2.5-16.9-5.9-24.2c-3.4-7.3-7.7-13.6-13-18.9
				c-5.3-5.3-11.4-9.4-18.3-12.4c-6.9-3-14.3-4.5-22.2-4.5c-7.9,0-15.3,1.5-22.2,4.5c-6.9,3-13,7.1-18.3,12.4
				c-5.3,5.3-9.5,11.6-12.7,19c-3.2,7.4-5,15.4-5.6,24.1H1455.1z"/>
			<path class="st1" d="M1481.7,187.4c0-10.6,1.8-20.6,5.5-30c3.6-9.4,8.7-17.6,15.3-24.5c6.5-6.9,14.3-12.4,23.3-16.4
				c9-4,18.9-6.1,29.7-6.1c13.6,0,25.7,3.1,36,9.2c10.4,6.2,18.2,14.7,23.3,25.7l-14.1,4.6c-4.4-8.3-10.7-14.7-18.9-19.5
				c-8.2-4.7-17.2-7.1-27-7.1c-8.3,0-16,1.6-23.1,4.9c-7.1,3.3-13.3,7.8-18.6,13.5c-5.3,5.8-9.5,12.5-12.5,20.3
				c-3.1,7.8-4.6,16.2-4.6,25.2c0,9,1.6,17.5,4.8,25.5c3.2,8,7.4,14.9,12.7,20.8c5.3,5.9,11.5,10.5,18.7,14
				c7.2,3.5,14.8,5.2,22.9,5.2c5.2,0,10.3-0.8,15.4-2.3c5.1-1.5,9.8-3.6,14.1-6.1c4.3-2.5,8.1-5.4,11.2-8.8
				c3.2-3.4,5.3-6.9,6.5-10.5l14.1,4c-1.9,5.2-4.9,10-8.8,14.6c-3.9,4.5-8.6,8.4-14,11.7c-5.4,3.3-11.3,5.8-17.9,7.6
				c-6.5,1.8-13.3,2.7-20.2,2.7c-10.6,0-20.4-2.1-29.4-6.2c-9-4.1-16.9-9.8-23.5-17s-11.8-15.5-15.6-24.9
				C1483.5,208.3,1481.7,198.2,1481.7,187.4z"/>
			<path class="st1" d="M1763,262.9h-14.4v-83.6c0-37.1-12.4-55.6-37.2-55.6c-6.2,0-12.2,1.2-18,3.5c-5.9,2.3-11.3,5.6-16.4,9.8
				c-5.1,4.2-9.6,9.2-13.4,14.8c-3.8,5.7-6.7,11.8-8.6,18.3v92.8h-14.4V52.5h14.4v96.3c6.1-11.7,14.7-21,25.5-28
				c10.9-6.9,22.5-10.4,35-10.4c8.3,0,15.4,1.5,21.3,4.6c6,3.1,10.9,7.5,14.8,13.3c3.9,5.8,6.8,12.7,8.6,20.9
				c1.8,8.2,2.7,17.3,2.7,27.5V262.9z"/>
		</g>
	</g>
	<g>
		<g>
			<defs>
				<polygon id="SVGID_1_" points="130.9,135.5 137.4,127.9 149.6,122 153.6,118.5 158.6,115.9 162.4,115.9 166.9,116.5 
					171.2,120.2 176.3,118.1 182.3,118.2 188.2,123.4 192.3,130.7 192.2,136.3 194.4,139.7 202.7,137.8 204.9,113 192.1,93.4 
					177.3,88 141.1,84.6 131.2,93.2 125.5,111 124.5,128.1 127.9,133.7 				"/>
			</defs>
			<clipPath id="SVGID_2_">
				<use xlink:href="#SVGID_1_"  style="overflow:visible;"/>
			</clipPath>
			<circle class="st2" cx="164" cy="124.6" r="33.8"/>
		</g>
		<g>
			<g>
				<path class="st1" d="M54.7,208.9c1.7-8.1,4.4-15.2,7-22.8c4.6-3.3,9.3-4.7,14.3-0.4c3.1-3,6.1-5.9,9.1-8.9
					c1.7-1.6,3.2-3.7,5.4-2.4c1.8,1.1,2.9-1.5,4.2-2.7c3.9-3.4,7.6-6.9,12-9.2c6.3-3.2,12.9-7.3,17.2-18
					c4.3-10.5,10.8-16.7,18.5-20.4c4.7-2.3,9.9-4.4,13.6-10.2c8.6-0.1,16.9,4.7,25.5,2.8c2.3-0.5,4.2,0.8,5.9,3.3
					c2,3.1,4.1,6,6.2,8.9c5.1,7,9.9,14.7,17.2,15.6c2.1,0.3,4.1,3.4,6.1,5.5c7.5,7.7,15,15.5,23.8,18.4c3.3,1.1,5.4,5.1,7.7,8.6
					c2,3,4.1,4.8,6.9,4.2c0.8-0.2,1.6-0.1,2.3,0c5.7,0.8,10.6,3.7,12.9,13.7c1.1,4.8,2.8,9.3,4.2,14
					C201.3,208.9,128,208.9,54.7,208.9z M122,158.4c1.8-1.6,3.7-2.7,4.4-6.4c1.5,0.3,2.5-1.6,3.4-3.1c4.5-7.2,8-16.3,14-20.7
					c0.2-0.1,0.1-1.1,0.2-1.7c0.4-0.1,1.2,0.5,0.6-1.1c-0.2,0.4-0.3,0.9-0.5,1.3c-4.6-0.1-9.2,2.7-10.8,9.2
					c-1.7,6.5-4.7,10.7-6.8,16.3c-1.9,1.2-4.5,1.4-4.4,6.4c-2.4-1.1-2.3,1.6-2.3,4.1c-2.9-1.8-6.2-4.5-8.8-0.5
					c-3.1,4.8-7,6.6-10.6,9.7c-2.3,2-4,4.4-4.1,10.1c5.7-5.8,11.7-4.1,17.2-5.1c2.7-4.4,4.3-9.6,6.2-14.5
					C119.8,160.2,121.3,159.8,122,158.4z M191.6,129.9c0,0.1,0,0.1-0.1,0.2c-7-12.2-10.2-13.6-18.8-8c-0.1,2.1,1.5,4,0.3,6.2
					c-2.6,1.6-3.8-5.1-6.3-2.2c-0.9-3.3,0.5-6.6-1.5-9.1c-2.7,0-5.6,0-8.9,0c-3.4,4.4-6.6,9.7-8.9,16.5c1.7,1.5,2.4-1.2,3.5-1.1
					l-0.1-0.3c-1.2,6.9-1.1,13.1,2.7,18.1c1.6,2.2,1.8,5.7,2,8.9c0.4,6.9,1.6,13.4,3.1,19.8c0.4,1.7,1,3.5-0.8,5.5
					c-1.2-5.9-5.2-4.6-7.6-8.3c-1.3-8.3-0.2-17-0.5-26.9c-1.5,4.5-0.6,9.2-3.1,11.5c-4-4.6,1.5-10.8-0.8-15.7
					c-3.4,1.4-3.8,6.1-4.1,10.1c-10.7,10.7-21.1,21.1-29.1,37.3c6.9,1.9,12.8-0.8,17.9-6.4c1.3-6.1,0.8-12.3,3-17.2
					c5.3,4.6,5.8,12.3,4.9,20.8c5.6,4.8,10.4,11.5,17.1,11c1.5-4.3,2.1-10.4,5.5-12c3.2,0.2,3.4,3.6,2.9,9c3.5-5.5,6.9-1.8,10.1-2.7
					c-0.6-3.7-1.8-6.9-1.4-10.8c5.4,0.9,10.5,1.7,15.2,2.4c1.2-1.6,0.1-3.2,0.5-4.7c14.3-7.7,28.2-1,42.3,4.2
					c-2.5-15.7-9.3-17-17.1-16c-1.5-7.4-6.8-4.7-9.7-9.9c-0.1-2.6-0.7-5.4,0.8-7.7c2.3-0.1,3.3,3.4,5.1,4.7
					c6.5,5.1,13.3,8.7,20.1,12.5c2.9,8.2,8.3,6.5,12.6,9.1c-3.1-7.6-7.8-8.5-12.7-8.9c0.1-1.1-0.4-1.6-0.9-2.2
					c-5.4-6.2-11.9-8.9-16.9-16.6c-2.5-3.8-6.3-5.6-9.8-1.7c-2.1-3.5-4.4-5.2-7.4-5.7c-6.5-1.3-8.2-4.8-9.1-16.3
					C187.9,127.1,189.1,132.7,191.6,129.9z"/>
				<path class="st1" d="M177.6,133.3c5.3,0.7,6.2,8.6,8.2,13.3c3.4,7.8,7.6,13.4,11.9,19.3c0.6,0.8,1.2,1.7,1.3,3
					c-1,3.7-3.4,3.6-4.5,2.3c-3.4-4.3-8.2-6.6-9.2-15c-0.5-4.5-1.5-8.1-4.3-10.7C178.8,143.2,178.3,138.1,177.6,133.3z"/>
				<path class="st1" d="M181.3,161.1c-2.9-1.3-5-4.4-7.9-3.8c-2.2-7.8-5.9-14.2-5.2-24.9C173,142.6,177.2,151.9,181.3,161.1z"/>
				<path class="st1" d="M164.7,149.3c2.6,6.4,7.8,10.1,7.8,19.1c-1,1.7-2.1,1.5-2.4,0.7c-2.2-6-4.3-12.3-6.4-18.4
					C164.1,150.2,164.4,149.8,164.7,149.3z"/>
				<path class="st1" d="M159,154c2,5.3,4.6,10.2,3.4,17.1C159.2,166.5,158.6,160.5,159,154z"/>
				<path class="st1" d="M151,132.4c0.2-0.1,0.4-0.3,0.4-0.3c-0.1,0-0.3,0-0.6,0.1L151,132.4z"/>
			</g>
		</g>
		<path class="st1" d="M274.7,204.8c0,40.9-49.2,74.1-110,74.1s-110-33.2-110-74.1c0-0.5,0-1,0-1.5"/>
		<g>
			<g>
				<path class="st0" d="M182.8,333.4c-12.3,0-24.1,0-36.1,0c-3.4-7.6-7.6-14.9-6.2-23.5c-8.6-2.3-16.8-4.5-25.5-6.9
					c-3,7.9-10.1,12.4-17.3,17.5c-10.1-5.8-20.5-11.8-31-17.9c0.8-8.3,0.8-16.7,6.1-23.1c-6.4-6.2-12.4-12.1-19-18.4
					c-2.6,1-6.3,2.9-10.3,3.9c-3.9,1-8,1.2-12.7,1.8C25,256.5,19.1,246.2,13.1,236c4.2-7.7,8.3-12,17.2-17.9
					c-2.2-8.2-4.4-16.4-6.6-24.5c-4.2-0.7-8.5-1-12.4-2.2c-3.8-1.1-7.5-3-11.3-4.6c0-12.1,0-23.8,0-36.2c7.4-2.8,14.4-7.7,23.5-5.9
					c2.3-8.6,4.6-16.9,7-25.6c-8.2-3-12.3-10.3-17.5-17.2c6-10.4,11.9-20.7,18-31.1c8.5,1,16.9,0.7,23.1,6.3
					c6.4-6.5,12.2-12.6,18.7-19.1c-4.9-6-5-14.3-5.9-23c10.2-5.9,20.6-11.9,31-18c6.7,5,14.1,9.1,17.2,17.5c8.5-2.3,16.6-4.5,25-6.7
					c0.6-3.8,0.8-8.1,1.9-12c1.1-3.9,3-7.5,4.7-11.5c11.9,0,23.8,0,36.3,0c2.9,7.3,7.6,14.4,6,23.4c8.6,2.3,16.9,4.6,25.3,6.8
					c1.9-2.8,3.5-6.1,5.9-8.5c3.4-3.3,7.5-5.9,11.5-9c10.4,6,20.8,12,31.2,18c-0.9,8.5-1,16.9-6.2,23.3c6.5,6.3,12.6,12.2,18.8,18.2
					c3-1.1,6.8-3,10.8-4c3.9-1,8-1.2,12.4-1.7c6,10.4,12,20.7,18.1,31.3c-2.7,3.5-4.9,7.1-7.9,10.1c-2.8,2.8-6.2,5-9.5,7.6
					c2.1,7.9,4.3,16,6.7,24.8c8.4-1.4,15.6,2.7,23.5,6.1c0,11.9,0,23.9,0,36.1c-7.4,3.4-14.6,7.6-23.4,6.2
					c-2.3,8.5-4.5,16.7-6.8,25.5c8,3.1,12.5,10.3,17.4,17.3c-5.9,10.3-11.8,20.5-17.8,30.9c-8.4-0.6-16.7-0.8-23.2-6.1
					c-6.3,6.4-12.3,12.5-18.8,19.1c5,6,5.1,14.2,6,22.9c-10,5.8-20.4,11.8-30.9,18c-7-4.8-14.2-9.2-17.4-17.5
					c-8.6,2.3-16.7,4.5-25.5,6.8C190.3,318.3,186.1,325.6,182.8,333.4z M164.2,277.5c60,0.7,109.1-48.6,109.5-108.1
					c0.4-59.8-48.3-109.7-108.5-109.7C104.7,59.6,55.9,108,55.8,168.4C55.8,228.7,104,277.3,164.2,277.5z"/>
			</g>
		</g>
	</g>
</g>
<g>
</g>
<g>
</g>
<g>
</g>
<g>
</g>
<g>
</g>
<g>
</g>
</svg>
