<?xml version="1.0" encoding="utf-8"?>
<!-- Generator: Adobe Illustrator 21.0.2, SVG Export Plug-In . SVG Version: 6.00 Build 0)  -->
<svg version="1.1" id="Layer_1" xmlns="http://www.w3.org/2000/svg" xmlns:xlink="http://www.w3.org/1999/xlink" x="0px" y="0px"
	 viewBox="0 0 29.3 29.2" style="enable-background:new 0 0 29.3 29.2;" xml:space="preserve">
<style type="text/css">
	.st0{fill:#4D7FA3;}
</style>
<g>
	<path class="st0" d="M5.7,0c1.5,1.9,3.9,5.9,4.4,7.4C9.9,7.7,9.7,7.9,9.4,8.1C8.8,8.7,8.2,9.2,7.6,9.7c-0.5,0.4-0.6,0.9-0.4,1.6
		C7.7,13,8.5,14.5,9.5,16c1.4,2,3,3.7,5,5c1.1,0.6,2.2,1.1,3.4,1.3c0.7,0.1,1.2,0,1.7-0.5c0.5-0.6,1.2-1.1,1.7-1.7
		c0.4-0.4,0.8-0.4,1.3-0.2c2,1.1,4,2.4,5.8,3.7c0.2,0.2,0.4,0.4,0.7,0.6c0,0,0,0.1,0,0.1c-0.5,0.5-1,0.9-1.5,1.4
		c-1.6,1.3-3.2,2.5-4.9,3.4c-0.4,0-0.9,0-1.3,0c-0.3-0.1-0.6-0.1-0.9-0.2c-2-0.4-3.8-1.2-5.6-2.3c-4.9-3.1-8.8-7.1-12-12
		c-1.4-2.2-2.4-4.5-3-7C0.1,7.5,0,7.3,0,7c0-0.2,0-0.4,0-0.6c0,0,0.1-0.1,0.1-0.1C1.7,4,3.4,1.9,5.4,0C5.5,0,5.6,0,5.7,0z"/>
	<path class="st0" d="M29.2,13.9c-0.8,0.1-1.6,0.3-2.4,0.4c0-6.6-5.4-11.9-11.9-11.9C15,1.6,15.2,0.8,15.3,0c0.3,0,0.6,0,0.9,0
		c0.4,0.1,0.9,0.2,1.3,0.2c5.8,1,10.5,5.6,11.4,11.4c0.1,0.4,0.2,0.9,0.2,1.3C29.2,13.3,29.2,13.6,29.2,13.9z"/>
	<path class="st0" d="M22.9,14.8c-0.8,0.1-1.6,0.2-2.4,0.4c0.2-1.9-0.2-3.5-1.5-4.9c-1.3-1.3-3-1.8-4.9-1.5c0.1-0.9,0.2-1.7,0.3-2.4
		C19,5.6,23.5,9.8,22.9,14.8z"/>
</g>
<g>
</g>
<g>
</g>
<g>
</g>
<g>
</g>
<g>
</g>
<g>
</g>
</svg>
