<?xml version="1.0" encoding="utf-8"?>
<!-- Generator: Adobe Illustrator 21.0.2, SVG Export Plug-In . SVG Version: 6.00 Build 0)  -->
<svg version="1.1" id="Layer_1" xmlns="http://www.w3.org/2000/svg" xmlns:xlink="http://www.w3.org/1999/xlink" x="0px" y="0px"
	 viewBox="0 0 35 35" style="enable-background:new 0 0 35 35;" xml:space="preserve">
<style type="text/css">
	.st0{fill:#436F8E;}
	.st1{display:none;}
	.st2{display:inline;fill:#FFFFFF;}
	.st3{fill:#FFFFFF;}
</style>
<circle class="st0" cx="17.5" cy="17.5" r="17.5"/>
<g class="st1">
	<path class="st2" d="M19.4,29.2c-1.6,0-3.1,0-4.7,0c0-3.9,0-7.7,0-11.6c-0.8,0-1.6,0-2.4,0c0-1.3,0-2.7,0-4c0.8,0,1.6,0,2.4,0
		c0-0.1,0-0.2,0-0.3c0-1.1,0-2.1,0-3.2c0-0.9,0.2-1.7,0.8-2.5c0.6-0.8,1.5-1.3,2.5-1.5C18.4,6,19,6,19.5,5.9c1.1,0,2.1,0,3.2,0
		c0.1,0,0.1,0,0.2,0c0,1.4,0,2.7,0,4.1c-0.2,0-0.5,0-0.7,0c-0.7,0-1.5,0-2.2,0c-0.4,0-0.6,0.2-0.6,0.6c0,0.9-0.1,1.9-0.1,2.9
		c1.2,0,2.4,0,3.6,0c0,0.5-0.1,0.9-0.1,1.4c-0.1,0.7-0.1,1.5-0.2,2.2c0,0.2-0.1,0.3-0.3,0.3c-0.9,0-1.8,0-2.7,0c-0.1,0-0.2,0-0.3,0
		C19.4,21.4,19.4,25.3,19.4,29.2z"/>
</g>
<g>
	<path class="st3" d="M12.9,22.8c-2.1-0.2-3.6-1.3-4.3-3.3c0.7,0,1.3,0.1,2-0.1c-1.3-0.4-2.3-1.1-3-2.3c-0.4-0.7-0.6-1.5-0.6-2.3
		c0.6,0.3,1.3,0.5,2,0.6c-2.1-1.7-2.5-3.8-1.4-6.3C8,9.5,8.4,10,8.9,10.4c2,1.9,4.5,3.1,7.2,3.5c0.4,0.1,0.7,0.1,1.1,0.1
		c0-0.1,0-0.2,0-0.3c-0.1-1.3,0-2.5,0.8-3.6c1.1-1.4,2.5-2.1,4.3-1.9c1,0.1,1.9,0.5,2.7,1.2c0.2,0.2,0.5,0.3,0.7,0.2
		c0.7-0.2,1.3-0.5,2-0.8c0.2-0.1,0.3-0.1,0.5-0.2c-0.4,1-1,1.8-1.9,2.5c0.5,0,0.9-0.1,1.3-0.2c0.4-0.1,0.8-0.2,1.2-0.3
		c-0.1,0.1-0.2,0.3-0.3,0.4c-0.5,0.6-1.1,1.2-1.7,1.7c-0.1,0.1-0.2,0.2-0.2,0.4c-0.1,0.9-0.1,1.8-0.2,2.7c-0.8,4-2.8,7.2-6.4,9.3
		c-1.9,1.1-4,1.7-6.2,1.7c-1,0-2,0-3-0.2c-1.6-0.3-3.1-0.9-4.5-1.7c0,0-0.1-0.1-0.1-0.1c1.2,0,2.4,0,3.5-0.4
		C10.8,24.1,11.9,23.5,12.9,22.8z"/>
</g>
<g>
</g>
<g>
</g>
<g>
</g>
<g>
</g>
<g>
</g>
<g>
</g>
</svg>
